<svg width="24" height="24" viewBox="0 0 24 24" fill="none" xmlns="http://www.w3.org/2000/svg">
<path d="M20.49 7.51996C20.4843 7.49359 20.4843 7.46632 20.49 7.43996C20.4852 7.41688 20.4852 7.39304 20.49 7.36996V7.27996L20.43 7.12996C20.4056 7.08903 20.3753 7.05196 20.34 7.01996L20.25 6.93996H20.2L16.26 4.44996L12.54 2.14996C12.4539 2.08169 12.3555 2.03075 12.25 1.99996H12.17C12.0806 1.98504 11.9894 1.98504 11.9 1.99996H11.8C11.6838 2.02565 11.5725 2.06952 11.47 2.12996L4.00001 6.77996L3.91001 6.84996L3.82001 6.92996L3.72001 6.99996L3.67001 7.05996L3.61001 7.20996V7.29996V7.35996C3.60029 7.42627 3.60029 7.49365 3.61001 7.55996V16.29C3.60967 16.4599 3.65264 16.6271 3.73488 16.7759C3.81711 16.9246 3.93589 17.0499 4.08001 17.14L11.58 21.78L11.73 21.84H11.81C11.9792 21.8936 12.1608 21.8936 12.33 21.84H12.41L12.56 21.78L20 17.21C20.1441 17.1199 20.2629 16.9946 20.3451 16.8459C20.4274 16.6971 20.4703 16.5299 20.47 16.36V7.62996C20.47 7.62996 20.49 7.55996 20.49 7.51996ZM12 4.16996L13.78 5.26996L8.19001 8.72996L6.40001 7.62996L12 4.16996ZM11 19.17L5.50001 15.81V9.41996L11 12.82V19.17ZM12 11.06L10.09 9.90996L15.68 6.43996L17.6 7.62996L12 11.06ZM18.5 15.78L13 19.2V12.82L18.5 9.41996V15.78Z" fill="white"/>
</svg>
