<svg width="16" height="16" viewBox="0 0 16 16" fill="none" xmlns="http://www.w3.org/2000/svg">
<path d="M12.5533 6.29366C12.4922 6.20319 12.4097 6.12912 12.3132 6.07797C12.2168 6.02682 12.1092 6.00016 12 6.00033H9.99998V4.66699H11.4666C11.6435 4.66699 11.813 4.59675 11.9381 4.47173C12.0631 4.34671 12.1333 4.17714 12.1333 4.00033V1.33366C12.1333 1.15685 12.0631 0.987279 11.9381 0.862254C11.813 0.73723 11.6435 0.666992 11.4666 0.666992H9.33331C8.30781 0.666992 7.32431 1.07437 6.59917 1.79951C5.87403 2.52465 5.46665 3.50816 5.46665 4.53366V6.00033H3.99998C3.82317 6.00033 3.6536 6.07056 3.52858 6.19559C3.40355 6.32061 3.33331 6.49018 3.33331 6.66699V9.33366C3.33331 9.51047 3.40355 9.68004 3.52858 9.80506C3.6536 9.93009 3.82317 10.0003 3.99998 10.0003H5.46665V14.667C5.46665 14.8438 5.53688 15.0134 5.66191 15.1384C5.78693 15.2634 5.9565 15.3337 6.13331 15.3337H9.33331C9.51012 15.3337 9.67969 15.2634 9.80472 15.1384C9.92974 15.0134 9.99998 14.8438 9.99998 14.667V10.0003H10.9333C11.0668 10.0005 11.1973 9.96049 11.3079 9.8856C11.4184 9.81072 11.5039 9.70437 11.5533 9.58033L12.62 6.91366C12.6602 6.81271 12.6752 6.70345 12.6636 6.59538C12.652 6.48732 12.6141 6.38374 12.5533 6.29366ZM10.48 8.66699H9.33331C9.1565 8.66699 8.98693 8.73723 8.86191 8.86226C8.73688 8.98728 8.66665 9.15685 8.66665 9.33366V14.0003H6.79998V9.33366C6.79998 9.15685 6.72974 8.98728 6.60472 8.86226C6.47969 8.73723 6.31012 8.66699 6.13331 8.66699H4.66665V7.33366H6.13331C6.31012 7.33366 6.47969 7.26342 6.60472 7.1384C6.72974 7.01337 6.79998 6.8438 6.79998 6.66699V4.53366C6.80174 3.86232 7.06921 3.21898 7.54392 2.74427C8.01863 2.26955 8.66197 2.00209 9.33331 2.00033H10.8V3.33366H10.2666C10.0409 3.30077 9.81086 3.31457 9.59068 3.37421C9.37051 3.43384 9.16492 3.53803 8.98665 3.68033C8.87846 3.79359 8.79433 3.92759 8.73933 4.07425C8.68434 4.22091 8.65961 4.37719 8.66665 4.53366V6.66699C8.66665 6.8438 8.73688 7.01337 8.86191 7.1384C8.98693 7.26342 9.1565 7.33366 9.33331 7.33366H11.0133L10.48 8.66699Z" fill="white"/>
</svg>
