<svg width="16" height="16" viewBox="0 0 16 16" fill="none" xmlns="http://www.w3.org/2000/svg">
<path d="M11.56 3.63967C11.4018 3.63967 11.2471 3.68659 11.1155 3.7745C10.984 3.8624 10.8814 3.98735 10.8209 4.13353C10.7603 4.27971 10.7445 4.44056 10.7754 4.59575C10.8062 4.75093 10.8824 4.89348 10.9943 5.00536C11.1062 5.11724 11.2487 5.19343 11.4039 5.2243C11.5591 5.25517 11.7199 5.23933 11.8661 5.17878C12.0123 5.11823 12.1372 5.01569 12.2252 4.88413C12.3131 4.75257 12.36 4.5979 12.36 4.43967C12.36 4.2275 12.2757 4.02402 12.1257 3.87399C11.9756 3.72396 11.7722 3.63967 11.56 3.63967ZM14.6266 5.25301C14.6137 4.69987 14.5101 4.15261 14.32 3.63301C14.1505 3.18843 13.8866 2.78586 13.5466 2.45301C13.2165 2.11129 12.813 1.84913 12.3666 1.68634C11.8484 1.49045 11.3005 1.38448 10.7466 1.37301C10.04 1.33301 9.81331 1.33301 7.99998 1.33301C6.18665 1.33301 5.95998 1.33301 5.25331 1.37301C4.69941 1.38448 4.15154 1.49045 3.63331 1.68634C3.18776 1.85077 2.7846 2.11271 2.45331 2.45301C2.1116 2.78313 1.84943 3.18663 1.68665 3.63301C1.49075 4.15124 1.38479 4.69911 1.37331 5.25301C1.33331 5.95967 1.33331 6.18634 1.33331 7.99967C1.33331 9.81301 1.33331 10.0397 1.37331 10.7463C1.38479 11.3002 1.49075 11.8481 1.68665 12.3663C1.84943 12.8127 2.1116 13.2162 2.45331 13.5463C2.7846 13.8866 3.18776 14.1486 3.63331 14.313C4.15154 14.5089 4.69941 14.6149 5.25331 14.6263C5.95998 14.6663 6.18665 14.6663 7.99998 14.6663C9.81331 14.6663 10.04 14.6663 10.7466 14.6263C11.3005 14.6149 11.8484 14.5089 12.3666 14.313C12.813 14.1502 13.2165 13.8881 13.5466 13.5463C13.8881 13.2147 14.1522 12.8118 14.32 12.3663C14.5101 11.8467 14.6137 11.2995 14.6266 10.7463C14.6266 10.0397 14.6666 9.81301 14.6666 7.99967C14.6666 6.18634 14.6666 5.95967 14.6266 5.25301ZM13.4266 10.6663C13.4218 11.0895 13.3451 11.5088 13.2 11.9063C13.0935 12.1965 12.9226 12.4586 12.7 12.673C12.4837 12.8933 12.2221 13.064 11.9333 13.173C11.5358 13.3182 11.1165 13.3948 10.6933 13.3997C10.0266 13.433 9.77998 13.4397 8.02665 13.4397C6.27331 13.4397 6.02665 13.4397 5.35998 13.3997C4.92057 13.4079 4.48304 13.3402 4.06665 13.1997C3.7905 13.0851 3.54088 12.9149 3.33331 12.6997C3.11204 12.4855 2.94321 12.2231 2.83998 11.933C2.67722 11.5298 2.58694 11.101 2.57331 10.6663C2.57331 9.99967 2.53331 9.75301 2.53331 7.99967C2.53331 6.24634 2.53331 5.99967 2.57331 5.33301C2.5763 4.90038 2.65528 4.47164 2.80665 4.06634C2.92401 3.78495 3.10416 3.53411 3.33331 3.33301C3.53586 3.10379 3.78617 2.92174 4.06665 2.79967C4.47301 2.65304 4.90131 2.57639 5.33331 2.57301C5.99998 2.57301 6.24665 2.53301 7.99998 2.53301C9.75331 2.53301 9.99998 2.53301 10.6666 2.57301C11.0898 2.57786 11.5091 2.65451 11.9066 2.79967C12.2096 2.91211 12.4815 3.09491 12.7 3.33301C12.9184 3.53779 13.0892 3.78816 13.2 4.06634C13.3481 4.4723 13.4248 4.90086 13.4266 5.33301C13.46 5.99967 13.4666 6.24634 13.4666 7.99967C13.4666 9.75301 13.46 9.99967 13.4266 10.6663ZM7.99998 4.57967C7.32385 4.58099 6.66329 4.78269 6.10175 5.15929C5.54021 5.53588 5.1029 6.07047 4.84507 6.69551C4.58724 7.32055 4.52046 8.00799 4.65318 8.67096C4.78589 9.33394 5.11214 9.9427 5.5907 10.4203C6.06926 10.898 6.67865 11.223 7.34189 11.3544C8.00512 11.4859 8.69242 11.4177 9.31696 11.1587C9.94149 10.8997 10.4752 10.4613 10.8507 9.89903C11.2262 9.33676 11.4266 8.6758 11.4266 7.99967C11.4275 7.54974 11.3394 7.10408 11.1675 6.68831C10.9955 6.27254 10.743 5.89488 10.4246 5.57704C10.1061 5.2592 9.72795 5.00746 9.31184 4.83629C8.89574 4.66513 8.44991 4.57792 7.99998 4.57967ZM7.99998 10.2197C7.5609 10.2197 7.13169 10.0895 6.76661 9.84554C6.40154 9.6016 6.11699 9.25488 5.94897 8.84923C5.78094 8.44358 5.73698 7.99721 5.82264 7.56657C5.9083 7.13594 6.11973 6.74037 6.4302 6.4299C6.74067 6.11942 7.13624 5.90799 7.56688 5.82233C7.99752 5.73667 8.44388 5.78063 8.84954 5.94866C9.25519 6.11669 9.6019 6.40123 9.84584 6.76631C10.0898 7.13139 10.22 7.5606 10.22 7.99967C10.22 8.29121 10.1626 8.57989 10.051 8.84923C9.93943 9.11857 9.7759 9.36331 9.56976 9.56945C9.36361 9.7756 9.11888 9.93912 8.84954 10.0507C8.58019 10.1623 8.29151 10.2197 7.99998 10.2197Z" fill="white"/>
</svg>
