<svg width="24" height="24" viewBox="0 0 24 24" fill="none" xmlns="http://www.w3.org/2000/svg">
<path d="M19.63 3.64982C19.5138 3.55584 19.3781 3.48909 19.2327 3.45448C19.0873 3.41987 18.9361 3.41828 18.79 3.44982C17.7214 3.67376 16.6183 3.67662 15.5486 3.4582C14.4789 3.23979 13.4652 2.80473 12.57 2.17982C12.4026 2.06369 12.2037 2.00146 12 2.00146C11.7963 2.00146 11.5974 2.06369 11.43 2.17982C10.5348 2.80473 9.52107 3.23979 8.45137 3.4582C7.38166 3.67662 6.27856 3.67376 5.21 3.44982C5.06394 3.41828 4.91267 3.41987 4.7673 3.45448C4.62194 3.48909 4.48618 3.55584 4.37 3.64982C4.25398 3.74394 4.16052 3.86286 4.09649 3.99784C4.03246 4.13282 3.99949 4.28043 4 4.42982V11.8798C3.99911 13.3136 4.34077 14.7268 4.99653 16.0018C5.6523 17.2768 6.60318 18.3767 7.77 19.2098L11.42 21.8098C11.5894 21.9304 11.7921 21.9952 12 21.9952C12.2079 21.9952 12.4106 21.9304 12.58 21.8098L16.23 19.2098C17.3968 18.3767 18.3477 17.2768 19.0035 16.0018C19.6592 14.7268 20.0009 13.3136 20 11.8798V4.42982C20.0005 4.28043 19.9675 4.13282 19.9035 3.99784C19.8395 3.86286 19.746 3.74394 19.63 3.64982ZM18 11.8798C18.0008 12.9946 17.7353 14.0934 17.2257 15.0848C16.716 16.0763 15.977 16.9317 15.07 17.5798L12 19.7698L8.93 17.5798C8.02304 16.9317 7.28398 16.0763 6.77435 15.0848C6.26471 14.0934 5.99923 12.9946 6 11.8798V5.57982C8.09643 5.75925 10.196 5.27284 12 4.18982C13.804 5.27284 15.9036 5.75925 18 5.57982V11.8798ZM13.54 9.58982L10.85 12.2898L9.96 11.3898C9.7717 11.2015 9.5163 11.0957 9.25 11.0957C8.9837 11.0957 8.7283 11.2015 8.54 11.3898C8.3517 11.5781 8.24591 11.8335 8.24591 12.0998C8.24591 12.3661 8.3517 12.6215 8.54 12.8098L10.14 14.4098C10.233 14.5035 10.3436 14.5779 10.4654 14.6287C10.5873 14.6795 10.718 14.7056 10.85 14.7056C10.982 14.7056 11.1127 14.6795 11.2346 14.6287C11.3564 14.5779 11.467 14.5035 11.56 14.4098L15 10.9998C15.1883 10.8115 15.2941 10.5561 15.2941 10.2898C15.2941 10.0235 15.1883 9.76812 15 9.57982C14.8117 9.39152 14.5563 9.28573 14.29 9.28573C14.0237 9.28573 13.7683 9.39152 13.58 9.57982L13.54 9.58982Z" fill="white"/>
</svg>
