<svg width="16" height="16" viewBox="0 0 16 16" fill="none" xmlns="http://www.w3.org/2000/svg">
<path d="M15.3274 2.63315C15.3275 2.51539 15.2964 2.39972 15.2372 2.29791C15.1781 2.1961 15.093 2.11179 14.9906 2.05357C14.8883 1.99534 14.7723 1.96529 14.6545 1.96645C14.5368 1.96762 14.4215 1.99998 14.3203 2.06023C13.9301 2.29248 13.51 2.47035 13.0716 2.58889C12.4456 2.05171 11.6472 1.75776 10.8223 1.76076C9.91734 1.76181 9.04821 2.11449 8.39843 2.74435C7.74865 3.37421 7.36908 4.23194 7.33987 5.13642C5.55585 4.85193 3.93895 3.92077 2.7975 2.52051C2.72872 2.43707 2.64089 2.37139 2.54141 2.32901C2.44192 2.28663 2.33371 2.2688 2.22589 2.27701C2.11813 2.28588 2.01415 2.32087 1.92295 2.37895C1.83175 2.43703 1.75606 2.51645 1.70245 2.61035C1.42746 3.09022 1.26953 3.62818 1.24148 4.18055C1.21342 4.73292 1.31604 5.28411 1.54099 5.78938L1.53969 5.79068C1.43858 5.85295 1.35515 5.94012 1.29736 6.04384C1.23956 6.14757 1.20935 6.26439 1.20961 6.38313C1.20838 6.48108 1.21426 6.579 1.22719 6.6761C1.29528 7.51494 1.66704 8.30014 2.27276 8.88443C2.23167 8.96271 2.20659 9.0484 2.19899 9.13649C2.19139 9.22457 2.20141 9.31329 2.22849 9.39745C2.49256 10.2202 3.05415 10.9148 3.80336 11.3454C3.04219 11.6397 2.22031 11.7423 1.41013 11.6442C1.26017 11.6254 1.10828 11.6581 0.979358 11.7369C0.850437 11.8158 0.752144 11.9361 0.700603 12.0782C0.649062 12.2203 0.647333 12.3756 0.6957 12.5188C0.744067 12.662 0.839658 12.7845 0.966793 12.8662C2.36019 13.7636 3.98258 14.2408 5.63997 14.2406C7.51948 14.2617 9.35328 13.6611 10.8561 12.5322C12.359 11.4033 13.4466 9.80935 13.9498 7.99835C14.1852 7.20944 14.3054 6.39066 14.3066 5.56738C14.3066 5.52376 14.3066 5.47885 14.306 5.43393C14.654 5.05855 14.9237 4.61746 15.0991 4.13652C15.2745 3.65559 15.3521 3.14447 15.3274 2.63315ZM13.123 4.77442C13.0129 4.90465 12.9572 5.07228 12.9674 5.24252C12.9739 5.35252 12.9733 5.46318 12.9733 5.56738C12.9719 6.26308 12.8699 6.95492 12.6705 7.62143C12.2595 9.16235 11.3433 10.5208 10.0686 11.4792C8.79389 12.4375 7.23443 12.9404 5.63997 12.9072C5.06722 12.9074 4.49645 12.8401 3.93945 12.7067C4.64973 12.4778 5.31385 12.1249 5.90104 11.6644C6.00919 11.5792 6.08834 11.4627 6.12763 11.3308C6.16692 11.1989 6.16443 11.058 6.12049 10.9276C6.07655 10.7971 5.99332 10.6835 5.88223 10.6022C5.77113 10.5209 5.6376 10.476 5.49997 10.4736C4.94586 10.465 4.41673 10.2417 4.02406 9.85059C4.12367 9.83171 4.22263 9.80827 4.32094 9.78028C4.46495 9.73929 4.59097 9.65103 4.67871 9.5297C4.76646 9.40838 4.81082 9.26106 4.80465 9.11146C4.79849 8.96186 4.74216 8.81869 4.64473 8.705C4.5473 8.5913 4.41444 8.51371 4.26755 8.4847C3.94591 8.42119 3.64325 8.28435 3.3831 8.08483C3.12294 7.88531 2.9123 7.62848 2.76755 7.33431C2.88804 7.35076 3.00929 7.36097 3.13083 7.36491C3.27522 7.36709 3.41656 7.32329 3.53442 7.23985C3.65227 7.1564 3.74053 7.03763 3.78643 6.90072C3.83042 6.76256 3.82816 6.61383 3.77999 6.47707C3.73182 6.34032 3.64037 6.223 3.51951 6.14291C3.22627 5.94755 2.98607 5.68252 2.82041 5.37154C2.65475 5.06057 2.56881 4.71336 2.57029 4.36101C2.57029 4.31674 2.57159 4.27247 2.57419 4.22885C4.06837 5.62235 6.00641 6.44382 8.04686 6.54851C8.14986 6.55257 8.25243 6.53317 8.34683 6.49178C8.44123 6.45039 8.52499 6.38809 8.59179 6.30958C8.65791 6.23031 8.70472 6.13678 8.72856 6.03635C8.75239 5.93592 8.75258 5.83133 8.72912 5.73081C8.69099 5.57171 8.67155 5.40872 8.67118 5.24512C8.67179 4.67482 8.89861 4.12804 9.30188 3.72477C9.70515 3.3215 10.2519 3.09468 10.8222 3.09408C11.1157 3.09329 11.4061 3.15334 11.6751 3.27044C11.9442 3.38754 12.186 3.55914 12.3854 3.77442C12.4623 3.85714 12.5591 3.91881 12.6665 3.95358C12.774 3.98834 12.8885 3.99503 12.9993 3.97301C13.2732 3.91972 13.5431 3.84794 13.8073 3.75817C13.6271 4.12682 13.3968 4.4688 13.123 4.77442Z" fill="white"/>
</svg>
