<svg width="14" height="12" viewBox="0 0 14 12" fill="none" xmlns="http://www.w3.org/2000/svg">
<path d="M8.92668 4.98699L6.92668 3.82699C6.74899 3.72201 6.54639 3.66663 6.34001 3.66663C6.13363 3.66663 5.93103 3.72201 5.75334 3.82699C5.5743 3.92792 5.42587 4.07539 5.32377 4.25377C5.22167 4.43215 5.16969 4.63482 5.17334 4.84033V7.16033C5.16969 7.36583 5.22167 7.5685 5.32377 7.74688C5.42587 7.92526 5.5743 8.07273 5.75334 8.17366C5.93103 8.27864 6.13363 8.33402 6.34001 8.33402C6.54639 8.33402 6.74899 8.27864 6.92668 8.17366L8.92668 7.01366C9.09766 6.90872 9.23887 6.76169 9.33684 6.58661C9.4348 6.41154 9.48624 6.21428 9.48624 6.01366C9.48624 5.81304 9.4348 5.61578 9.33684 5.4407C9.23887 5.26563 9.09766 5.1186 8.92668 5.01366V4.98699ZM6.49334 6.88033V5.12033L8.01334 6.00033L6.49334 6.88033ZM11.6667 0.666992H2.33334C1.80291 0.666992 1.2942 0.877706 0.91913 1.25278C0.544057 1.62785 0.333344 2.13656 0.333344 2.66699V9.33366C0.333344 9.86409 0.544057 10.3728 0.91913 10.7479C1.2942 11.1229 1.80291 11.3337 2.33334 11.3337H11.6667C12.1971 11.3337 12.7058 11.1229 13.0809 10.7479C13.456 10.3728 13.6667 9.86409 13.6667 9.33366V2.66699C13.6667 2.13656 13.456 1.62785 13.0809 1.25278C12.7058 0.877706 12.1971 0.666992 11.6667 0.666992ZM12.3333 9.33366C12.3333 9.51047 12.2631 9.68004 12.1381 9.80506C12.0131 9.93009 11.8435 10.0003 11.6667 10.0003H2.33334C2.15653 10.0003 1.98696 9.93009 1.86194 9.80506C1.73691 9.68004 1.66668 9.51047 1.66668 9.33366V2.66699C1.66668 2.49018 1.73691 2.32061 1.86194 2.19559C1.98696 2.07056 2.15653 2.00033 2.33334 2.00033H11.6667C11.8435 2.00033 12.0131 2.07056 12.1381 2.19559C12.2631 2.32061 12.3333 2.49018 12.3333 2.66699V9.33366Z" fill="white"/>
</svg>
