<svg width="562" height="78" viewBox="0 0 562 78" fill="none" xmlns="http://www.w3.org/2000/svg">
<path d="M1.16738 0.864815C0.907164 0.772376 0.621285 0.908382 0.528847 1.16859C0.436408 1.4288 0.572414 1.71468 0.832625 1.80712L1.16738 0.864815ZM0.832625 1.80712C77.8671 29.1733 297.686 67.445 561.121 1.82114L560.879 0.850795C297.636 66.427 78.0172 28.1653 1.16738 0.864815L0.832625 1.80712Z" fill="url(#paint0_linear_34_1016)"/>
<g clip-path="url(#clip0_34_1016)">
<path d="M281 49.0026C271.8 49.0026 264.333 52.736 264.333 57.336C264.333 61.0693 269.233 64.2193 276 65.286V70.6693L282.667 64.0026L276 57.336V61.886C270.75 60.9526 267.667 58.7193 267.667 57.336C267.667 55.5693 272.733 52.336 281 52.336C289.267 52.336 294.333 55.5693 294.333 57.336C294.333 58.5526 291.9 60.486 287.667 61.5526V64.9693C293.55 63.686 297.667 60.7526 297.667 57.336C297.667 52.736 290.2 49.0026 281 49.0026Z" fill="white"/>
</g>
<defs>
<linearGradient id="paint0_linear_34_1016" x1="281" y1="1.33597" x2="281" y2="37.5571" gradientUnits="userSpaceOnUse">
<stop stop-color="white" stop-opacity="0"/>
<stop offset="1" stop-color="white"/>
</linearGradient>
<clipPath id="clip0_34_1016">
<rect width="40" height="40" fill="white" transform="translate(261 37.336)"/>
</clipPath>
</defs>
</svg>
