<svg width="149" height="491" viewBox="0 0 149 491" fill="none" xmlns="http://www.w3.org/2000/svg">
<path d="M-0.981841 485C102.892 409.629 248.316 208.11 -0.981841 4.99997" stroke="white"/>
<circle cx="1" cy="483" r="7.5" transform="rotate(180 1 483)" fill="#3D996D" stroke="white"/>
<circle cx="1" cy="8" r="7.5" transform="rotate(180 1 8)" fill="#973030" stroke="white"/>
<circle cx="67" cy="421" r="7.5" transform="rotate(180 67 421)" fill="#86942F" stroke="white"/>
<path d="M59.468 73C59.468 68.8588 62.8321 65.5 66.984 65.5C71.1359 65.5 74.5 68.8588 74.5 73C74.5 77.1412 71.1359 80.5 66.984 80.5C62.8321 80.5 59.468 77.1412 59.468 73Z" fill="#9B0E95" stroke="white"/>
<circle cx="115" cy="344" r="7.5" transform="rotate(180 115 344)" fill="#A8000A" stroke="white"/>
<circle cx="115" cy="147" r="7.5" transform="rotate(180 115 147)" fill="#002B7B" stroke="white"/>
<circle cx="136.318" cy="245" r="10.5" transform="rotate(180 136.318 245)" fill="black" stroke="white" stroke-width="3"/>
</svg>
