<svg width="384" height="157" viewBox="0 0 384 157" fill="none" xmlns="http://www.w3.org/2000/svg">
<g filter="url(#filter0_d_34_1014)">
<rect x="324" y="97" width="56" height="56" rx="28" fill="white"/>
<rect width="24" height="24" transform="translate(340 113)" fill="white"/>
<path d="M359 124H353V118C353 117.735 352.895 117.48 352.707 117.293C352.52 117.105 352.265 117 352 117C351.735 117 351.48 117.105 351.293 117.293C351.105 117.48 351 117.735 351 118V124H345C344.735 124 344.48 124.105 344.293 124.293C344.105 124.48 344 124.735 344 125C344 125.265 344.105 125.52 344.293 125.707C344.48 125.895 344.735 126 345 126H351V132C351 132.265 351.105 132.52 351.293 132.707C351.48 132.895 351.735 133 352 133C352.265 133 352.52 132.895 352.707 132.707C352.895 132.52 353 132.265 353 132V126H359C359.265 126 359.52 125.895 359.707 125.707C359.895 125.52 360 125.265 360 125C360 124.735 359.895 124.48 359.707 124.293C359.52 124.105 359.265 124 359 124Z" fill="#1B3559"/>
</g>
<g filter="url(#filter1_d_34_1014)">
<rect x="4" y="4" width="56" height="56" rx="28" fill="white"/>
<path d="M39 31H33V25C33 24.7348 32.8946 24.4804 32.7071 24.2929C32.5196 24.1054 32.2652 24 32 24C31.7348 24 31.4804 24.1054 31.2929 24.2929C31.1054 24.4804 31 24.7348 31 25V31H25C24.7348 31 24.4804 31.1054 24.2929 31.2929C24.1054 31.4804 24 31.7348 24 32C24 32.2652 24.1054 32.5196 24.2929 32.7071C24.4804 32.8946 24.7348 33 25 33H31V39C31 39.2652 31.1054 39.5196 31.2929 39.7071C31.4804 39.8946 31.7348 40 32 40C32.2652 40 32.5196 39.8946 32.7071 39.7071C32.8946 39.5196 33 39.2652 33 39V33H39C39.2652 33 39.5196 32.8946 39.7071 32.7071C39.8946 32.5196 40 32.2652 40 32C40 31.7348 39.8946 31.4804 39.7071 31.2929C39.5196 31.1054 39.2652 31 39 31Z" fill="#00112C"/>
</g>
<defs>
<filter id="filter0_d_34_1014" x="320" y="93" width="64" height="64" filterUnits="userSpaceOnUse" color-interpolation-filters="sRGB">
<feFlood flood-opacity="0" result="BackgroundImageFix"/>
<feColorMatrix in="SourceAlpha" type="matrix" values="0 0 0 0 0 0 0 0 0 0 0 0 0 0 0 0 0 0 127 0" result="hardAlpha"/>
<feOffset/>
<feGaussianBlur stdDeviation="2"/>
<feColorMatrix type="matrix" values="0 0 0 0 0.106 0 0 0 0 0.208 0 0 0 0 0.349 0 0 0 1 0"/>
<feBlend mode="normal" in2="BackgroundImageFix" result="effect1_dropShadow_34_1014"/>
<feBlend mode="normal" in="SourceGraphic" in2="effect1_dropShadow_34_1014" result="shape"/>
</filter>
<filter id="filter1_d_34_1014" x="0" y="0" width="64" height="64" filterUnits="userSpaceOnUse" color-interpolation-filters="sRGB">
<feFlood flood-opacity="0" result="BackgroundImageFix"/>
<feColorMatrix in="SourceAlpha" type="matrix" values="0 0 0 0 0 0 0 0 0 0 0 0 0 0 0 0 0 0 127 0" result="hardAlpha"/>
<feOffset/>
<feGaussianBlur stdDeviation="2"/>
<feColorMatrix type="matrix" values="0 0 0 0 0.106 0 0 0 0 0.208 0 0 0 0 0.349 0 0 0 0.5 0"/>
<feBlend mode="normal" in2="BackgroundImageFix" result="effect1_dropShadow_34_1014"/>
<feBlend mode="normal" in="SourceGraphic" in2="effect1_dropShadow_34_1014" result="shape"/>
</filter>
</defs>
</svg>
